<svg width="47" height="37" viewBox="0 0 47 37" fill="none" xmlns="http://www.w3.org/2000/svg">
<path d="M42.3 0H4.7C2.115 0 0.0235 2.37857 0.0235 5.28571L0 31.7143C0 34.6214 2.115 37 4.7 37H42.3C44.885 37 47 34.6214 47 31.7143V5.28571C47 2.37857 44.885 0 42.3 0ZM21.15 7.92857H25.85V13.2143H21.15V7.92857ZM21.15 15.8571H25.85V21.1429H21.15V15.8571ZM14.1 7.92857H18.8V13.2143H14.1V7.92857ZM14.1 15.8571H18.8V21.1429H14.1V15.8571ZM11.75 21.1429H7.05V15.8571H11.75V21.1429ZM11.75 13.2143H7.05V7.92857H11.75V13.2143ZM32.9 31.7143H14.1V26.4286H32.9V31.7143ZM32.9 21.1429H28.2V15.8571H32.9V21.1429ZM32.9 13.2143H28.2V7.92857H32.9V13.2143ZM39.95 21.1429H35.25V15.8571H39.95V21.1429ZM39.95 13.2143H35.25V7.92857H39.95V13.2143Z" fill="url(#paint0_linear)"/>
<defs>
<linearGradient id="paint0_linear" x1="23.9434" y1="18.9302" x2="23.9434" y2="68.8372" gradientUnits="userSpaceOnUse">
<stop stop-color="#333333"/>
<stop offset="1" stop-color="#333333" stop-opacity="0"/>
</linearGradient>
</defs>
</svg>
