<svg width="512" height="492" viewBox="0 0 512 492" fill="none" xmlns="http://www.w3.org/2000/svg">
<path d="M73.667 422.104L154.487 474.729C182.49 485.869 213.029 492 245.002 492C276.133 492 305.901 486.181 333.295 475.592L414.115 424.273C460.872 379.656 490.004 316.73 490.004 246.998C490.004 111.687 380.313 1.99597 245.002 1.99597C109.691 1.99597 0 111.687 0 246.998C0 315.613 28.218 377.627 73.667 422.104V422.104Z" fill="#1E1E1E"/>
<path d="M449.794 352.516H37.9907C31.1277 352.516 25.5117 346.9 25.5117 340.037V48.863C25.5117 42 31.1267 36.384 37.9907 36.384H449.793C456.656 36.384 462.272 42 462.272 48.863V340.036C462.272 346.9 456.657 352.516 449.794 352.516V352.516Z" fill="#3F3F3F"/>
<path d="M238.693 334.9L228.027 235.983C217.027 230.209 223.652 218.367 223.652 218.367C217.277 214.103 221.468 207.968 221.468 207.968V203.286H130.886V78.85C123.633 71.596 130.886 63.487 130.886 63.487L118.378 44.716C116.244 41.811 114.686 39.034 113.596 36.384H37.9907C31.1277 36.384 25.5117 42 25.5117 48.863V340.036C25.5117 346.899 31.1267 352.515 37.9907 352.515H238.692C230.093 343.915 238.693 334.9 238.693 334.9V334.9Z" fill="#515151"/>
<path d="M310.765 334.9H177.016C174.2 334.9 171.896 332.596 171.896 329.78V241.104C171.896 238.288 174.2 235.984 177.016 235.984H310.765C313.581 235.984 315.885 238.288 315.885 241.104V329.78C315.885 332.596 313.581 334.9 310.765 334.9Z" fill="#515151"/>
<path d="M226.013 319.811V251.072C226.013 244.06 230.619 238.08 236.952 235.983H177.016C174.2 235.983 171.896 238.287 171.896 241.103V329.779C171.896 332.595 174.2 334.899 177.016 334.899H236.952C230.619 332.804 226.013 326.824 226.013 319.811Z" fill="#A3B3EF"/>
<path d="M80.332 36.384V54.14C80.332 59.28 84.538 63.486 89.678 63.486H398.103C403.243 63.486 407.449 59.28 407.449 54.14V36.384H80.332Z" fill="#24272F"/>
<path d="M117.332 49.936C117.332 42.452 123.399 36.384 130.883 36.384H80.332V54.14C80.332 59.281 84.538 63.486 89.678 63.486H130.883C123.399 63.487 117.332 57.42 117.332 49.936V49.936Z" fill="#0C0C0F"/>
<path d="M438.874 0H48.9089C31.1779 0 16.6719 14.507 16.6719 32.237C16.6719 39.1 22.2869 44.716 29.1509 44.716H458.632C465.496 44.716 471.111 39.101 471.111 32.237C471.111 14.507 456.604 0 438.874 0Z" fill="#67759B"/>
<path d="M16.6719 32.237C16.6719 39.101 22.2869 44.716 29.1509 44.716H118.376C97.5599 16.383 130.884 0 130.884 0H48.9089C31.1789 0 16.6719 14.507 16.6719 32.237V32.237Z" fill="#3F3F3F"/>
<path d="M420.454 218.368H67.3271C62.9061 218.368 59.2891 214.751 59.2891 210.33V86.887C59.2891 82.466 62.9061 78.85 67.3271 78.85H420.453C424.874 78.85 428.491 82.467 428.491 86.887V210.33C428.491 214.751 424.874 218.368 420.454 218.368Z" fill="#67759B"/>
<path d="M148.991 206.004V185.193C148.991 184.108 148.111 183.228 147.026 183.228H116.504C115.419 183.228 114.539 184.108 114.539 185.193V206.004C114.539 207.089 115.419 207.969 116.504 207.969H147.026C148.111 207.969 148.991 207.089 148.991 206.004Z" fill="#0C0C0F"/>
<path d="M102.175 183.228H71.6544C70.5694 183.228 69.6895 184.108 69.6895 185.193V206.004C69.6895 207.089 70.5694 207.969 71.6544 207.969H102.175C103.26 207.969 104.14 207.089 104.14 206.004V185.193C104.14 184.108 103.26 183.228 102.175 183.228Z" fill="#0C0C0F"/>
<path d="M385.608 207.969H416.129C417.214 207.969 418.094 207.089 418.094 206.004V185.193C418.094 184.108 417.214 183.228 416.129 183.228H385.608C384.523 183.228 383.643 184.108 383.643 185.193V206.004C383.643 207.089 384.522 207.969 385.608 207.969Z" fill="#24272F"/>
<path d="M371.278 183.228H340.756C339.671 183.228 338.791 184.108 338.791 185.193V206.004C338.791 207.089 339.671 207.969 340.756 207.969H371.278C372.363 207.969 373.243 207.089 373.243 206.004V185.193C373.243 184.108 372.363 183.228 371.278 183.228Z" fill="#24272F"/>
<path d="M281.579 89.249H251.057C249.972 89.249 249.092 90.129 249.092 91.214V100.586C249.092 101.671 249.972 102.551 251.057 102.551H281.579C282.664 102.551 283.544 101.671 283.544 100.586V91.214C283.543 90.129 282.664 89.249 281.579 89.249Z" fill="#24272F"/>
<path d="M191.878 89.249H161.356C160.271 89.249 159.391 90.129 159.391 91.214V100.586C159.391 101.671 160.271 102.551 161.356 102.551H191.878C192.963 102.551 193.843 101.671 193.843 100.586V91.214C193.843 90.129 192.963 89.249 191.878 89.249Z" fill="#0C0C0F"/>
<path d="M148.991 100.586V91.214C148.991 90.129 148.111 89.249 147.026 89.249H116.504C115.419 89.249 114.539 90.129 114.539 91.214V100.586C114.539 101.671 115.419 102.551 116.504 102.551H147.026C148.111 102.55 148.991 101.671 148.991 100.586Z" fill="#0C0C0F"/>
<path d="M236.727 89.249H206.205C205.12 89.249 204.24 90.129 204.24 91.214V100.586C204.24 101.671 205.12 102.551 206.205 102.551H236.727C237.812 102.551 238.692 101.671 238.692 100.586V91.214C238.692 90.129 237.812 89.249 236.727 89.249Z" fill="#24272F"/>
<path d="M102.175 89.249H71.6544C70.5694 89.249 69.6895 90.129 69.6895 91.214V100.586C69.6895 101.671 70.5694 102.551 71.6544 102.551H102.175C103.26 102.551 104.14 101.671 104.14 100.586V91.214C104.14 90.129 103.26 89.249 102.175 89.249Z" fill="#0C0C0F"/>
<path d="M326.428 89.249H295.906C294.821 89.249 293.941 90.129 293.941 91.214V100.586C293.941 101.671 294.821 102.551 295.906 102.551H326.428C327.513 102.551 328.393 101.671 328.393 100.586V91.214C328.393 90.129 327.513 89.249 326.428 89.249Z" fill="#24272F"/>
<path d="M326.428 148.089H295.906C294.821 148.089 293.941 148.969 293.941 150.054V170.865C293.941 171.95 294.821 172.83 295.906 172.83H326.428C327.513 172.83 328.393 171.95 328.393 170.865V150.054C328.393 148.969 327.513 148.089 326.428 148.089Z" fill="#24272F"/>
<path d="M338.791 150.054V170.865C338.791 171.95 339.671 172.83 340.756 172.83H416.128C417.213 172.83 418.093 171.95 418.093 170.865V150.054C418.093 148.969 417.213 148.089 416.128 148.089H340.756C339.671 148.089 338.791 148.969 338.791 150.054Z" fill="#24272F"/>
<path d="M69.6895 150.054V170.865C69.6895 171.95 70.5694 172.83 71.6544 172.83H147.026C148.111 172.83 148.991 171.95 148.991 170.865V150.054C148.991 148.969 148.111 148.089 147.026 148.089H71.6544C70.5694 148.089 69.6895 148.969 69.6895 150.054V150.054Z" fill="#0C0C0F"/>
<path d="M191.878 112.949H161.356C160.271 112.949 159.391 113.829 159.391 114.914V135.725C159.391 136.81 160.271 137.69 161.356 137.69H191.878C192.963 137.69 193.843 136.81 193.843 135.725V114.914C193.843 113.829 192.963 112.949 191.878 112.949V112.949Z" fill="#0C0C0F"/>
<path d="M236.727 112.949H206.205C205.12 112.949 204.24 113.829 204.24 114.914V135.725C204.24 136.81 205.12 137.69 206.205 137.69H236.727C237.812 137.69 238.692 136.81 238.692 135.725V114.914C238.692 113.829 237.812 112.949 236.727 112.949V112.949Z" fill="#24272F"/>
<path d="M148.991 135.725V114.914C148.991 113.829 148.111 112.949 147.026 112.949H116.504C115.419 112.949 114.539 113.829 114.539 114.914V135.725C114.539 136.81 115.419 137.69 116.504 137.69H147.026C148.111 137.69 148.991 136.81 148.991 135.725Z" fill="#0C0C0F"/>
<path d="M281.579 112.949H251.057C249.972 112.949 249.092 113.829 249.092 114.914V135.725C249.092 136.81 249.972 137.69 251.057 137.69H281.579C282.664 137.69 283.544 136.81 283.544 135.725V114.914C283.543 113.829 282.664 112.949 281.579 112.949V112.949Z" fill="#24272F"/>
<path d="M326.428 112.949H295.906C294.821 112.949 293.941 113.829 293.941 114.914V135.725C293.941 136.81 294.821 137.69 295.906 137.69H326.428C327.513 137.69 328.393 136.81 328.393 135.725V114.914C328.393 113.829 327.513 112.949 326.428 112.949V112.949Z" fill="#24272F"/>
<path d="M102.175 112.949H71.6544C70.5694 112.949 69.6895 113.829 69.6895 114.914V135.725C69.6895 136.81 70.5694 137.69 71.6544 137.69H102.175C103.26 137.69 104.14 136.81 104.14 135.725V114.914C104.14 113.829 103.26 112.949 102.175 112.949V112.949Z" fill="#0C0C0F"/>
<path d="M191.878 148.089H161.356C160.271 148.089 159.391 148.969 159.391 150.054V170.865C159.391 171.95 160.271 172.83 161.356 172.83H191.878C192.963 172.83 193.843 171.95 193.843 170.865V150.054C193.843 148.969 192.963 148.089 191.878 148.089Z" fill="#0C0C0F"/>
<path d="M236.727 148.089H206.205C205.12 148.089 204.24 148.969 204.24 150.054V170.865C204.24 171.95 205.12 172.83 206.205 172.83H236.727C237.812 172.83 238.692 171.95 238.692 170.865V150.054C238.692 148.969 237.812 148.089 236.727 148.089Z" fill="#24272F"/>
<path d="M220.615 100.586V91.214C220.615 90.129 221.495 89.249 222.58 89.249H206.205C205.12 89.249 204.24 90.129 204.24 91.214V100.586C204.24 101.671 205.12 102.551 206.205 102.551H222.58C221.494 102.55 220.615 101.671 220.615 100.586Z" fill="#0C0C0F"/>
<path d="M220.615 135.725V114.914C220.615 113.829 221.495 112.949 222.58 112.949H206.205C205.12 112.949 204.24 113.829 204.24 114.914V135.725C204.24 136.81 205.12 137.69 206.205 137.69H222.58C221.494 137.69 220.615 136.81 220.615 135.725Z" fill="#0C0C0F"/>
<path d="M220.615 170.865V150.054C220.615 148.969 221.495 148.089 222.58 148.089H206.205C205.12 148.089 204.24 148.969 204.24 150.054V170.865C204.24 171.95 205.12 172.83 206.205 172.83H222.58C221.494 172.829 220.615 171.949 220.615 170.865Z" fill="#0C0C0F"/>
<path d="M281.579 148.089H251.057C249.972 148.089 249.092 148.969 249.092 150.054V170.865C249.092 171.95 249.972 172.83 251.057 172.83H281.579C282.664 172.83 283.544 171.95 283.544 170.865V150.054C283.543 148.969 282.664 148.089 281.579 148.089Z" fill="#24272F"/>
<path d="M326.429 183.228C321.201 183.228 150.692 183.228 161.356 183.228C160.271 183.228 159.391 184.107 159.391 185.193V206.003C159.391 207.089 160.271 207.968 161.356 207.968H326.429C327.514 207.968 328.394 207.089 328.394 206.003V185.193C328.394 184.108 327.514 183.228 326.429 183.228Z" fill="#24272F"/>
<path d="M221.467 206.004V185.194C221.467 184.108 222.347 183.229 223.432 183.229C223.272 183.229 223.112 183.229 222.952 183.229C192.016 183.229 165.214 183.229 161.356 183.229C160.271 183.229 159.391 184.108 159.391 185.194V206.004C159.391 207.09 160.271 207.969 161.356 207.969H223.432C222.347 207.969 221.467 207.089 221.467 206.004Z" fill="#0C0C0F"/>
<path d="M435.328 271.915C435.328 268.066 435.328 230.328 435.328 225.999C435.328 218.508 429.255 212.435 421.764 212.435C414.273 212.435 408.2 218.508 408.2 225.999V203.287C408.2 195.795 402.127 189.723 394.636 189.723C387.145 189.723 381.072 195.796 381.072 203.287V186.394C381.072 178.903 374.999 172.83 367.508 172.83C360.017 172.83 353.944 178.903 353.944 186.394V203.287C353.944 195.795 347.871 189.723 340.38 189.723C332.889 189.723 326.816 195.796 326.816 203.287V280.78C326.358 284.914 326.52 289.018 325.509 293.062C324.555 296.877 319.587 297.864 317.272 294.685C312.011 287.462 303.768 276.794 295.153 268.179C288.818 261.844 282.147 261.592 276.648 263.312C270.205 265.327 268.096 273.444 272.85 278.237C286.526 292.025 291.536 308.404 293.337 319.652C294.734 328.371 298.866 336.419 304.983 342.789C314.21 352.395 322.17 363.747 327.197 371.53C331.601 378.349 333.785 386.382 333.296 394.484V475.592C363.611 463.875 391.017 446.314 414.116 424.272V388.57C414.116 373.259 419.935 361.195 419.908 361.278C430.712 336.969 435.328 298.413 435.328 271.915V271.915Z" fill="#170F09"/>
<path d="M211.135 263.312C205.636 261.592 198.965 261.844 192.63 268.179C184.014 276.795 175.772 287.462 170.511 294.685C168.196 297.864 163.228 296.878 162.274 293.062C161.263 289.018 161.424 284.914 160.967 280.78C160.967 260.976 160.967 218.02 160.967 203.287C160.967 195.795 154.894 189.723 147.403 189.723C139.912 189.723 133.839 195.796 133.839 203.287V186.394C133.839 178.903 127.766 172.83 120.275 172.83C112.784 172.83 106.711 178.903 106.711 186.394V203.287C106.711 195.795 100.638 189.723 93.1471 189.723C85.6561 189.723 79.5831 195.796 79.5831 203.287V225.999C79.5831 218.508 73.5101 212.435 66.0191 212.435C58.5281 212.435 52.4551 218.508 52.4551 225.999V271.915C52.4551 298.414 57.0721 336.969 67.8761 361.279C67.8491 361.196 73.6681 373.259 73.6681 388.571V422.104C96.6681 444.612 124.076 462.631 154.488 474.729V394.484C153.999 386.382 156.183 378.349 160.586 371.53C165.613 363.747 173.573 352.395 182.8 342.789C188.918 336.42 193.05 328.372 194.446 319.652C196.247 308.404 201.258 292.025 214.933 278.237C219.687 273.444 217.578 265.327 211.135 263.312V263.312Z" fill="#170F09"/>
<path d="M487.096 0H358.346C344.649 0 333.443 11.206 333.443 24.903V127.131C333.443 140.828 344.649 152.034 358.346 152.034C361.847 152.034 363.787 156.055 361.646 158.824C359.365 161.775 356.808 164.526 353.969 167.027C348.673 171.692 351.652 181.256 358.369 181.235C375.439 181.182 391.436 172.518 402.323 158.406C405.383 154.44 410.04 152.034 415.05 152.034H487.096C500.793 152.034 511.999 140.828 511.999 127.131V24.903C511.999 11.206 500.793 0 487.096 0V0Z" fill="#2D2E2F"/>
<path d="M416.515 152.034C402.818 152.034 391.612 140.827 391.612 127.131V24.903C391.612 11.206 402.818 0 416.515 0H358.348C344.651 0 333.445 11.207 333.445 24.903V127.131C333.445 140.828 344.651 152.034 358.348 152.034C361.849 152.034 363.789 156.054 361.648 158.824C359.367 161.775 356.81 164.526 353.971 167.027C348.675 171.692 351.654 181.256 358.371 181.235C375.441 181.182 391.438 172.518 402.325 158.406C405.385 154.44 410.042 152.034 415.052 152.034H416.515Z" fill="#414141"/>
<path d="M391.501 81.3379C393.015 74.9006 389.023 68.4551 382.586 66.9416C376.149 65.4281 369.703 69.4197 368.19 75.857C366.676 82.2944 370.668 88.7398 377.105 90.2533C383.542 91.7668 389.988 87.7753 391.501 81.3379Z" fill="#67759B"/>
<path d="M425.257 89.598C431.357 87.0469 434.234 80.0335 431.683 73.9332C429.132 67.8329 422.118 64.9558 416.018 67.507C409.918 70.0581 407.041 77.0715 409.592 83.1718C412.143 89.272 419.156 92.1492 425.257 89.598Z" fill="#67759B"/>
<path d="M468.893 88.0259C474.088 83.9348 474.983 76.4071 470.892 71.2123C466.8 66.0174 459.273 65.1227 454.078 69.2138C448.883 73.3048 447.988 80.8326 452.079 86.0274C456.171 91.2222 463.698 92.117 468.893 88.0259Z" fill="#67759B"/>
<path d="M333.294 475.592C363.609 463.875 391.015 446.314 414.114 424.272V388.57C414.114 380.048 415.916 372.537 417.51 367.561C372.75 414.241 327.195 371.529 327.195 371.529C331.599 378.348 333.783 386.381 333.294 394.483V475.592Z" fill="#E3A680"/>
<path d="M154.488 474.729V394.484C153.999 386.382 156.183 378.349 160.586 371.53C99.1468 413.178 71.1738 370.615 71.1738 370.615C72.4758 375.388 73.6668 381.645 73.6668 388.571V422.104C96.6678 444.612 124.076 462.631 154.488 474.729Z" fill="#E3A680"/>
<path d="M217.482 271.368C213.402 270.476 206.26 269.818 202.693 274.882C198.073 281.44 196.527 285.465 205.665 289.819C208.201 285.871 211.243 281.96 214.935 278.238C216.87 276.286 217.651 273.785 217.482 271.368V271.368Z" fill="black"/>
<path d="M270.301 271.368C274.381 270.476 281.523 269.818 285.09 274.882C289.71 281.44 291.256 285.465 282.118 289.819C279.582 285.871 276.54 281.96 272.848 278.238C270.914 276.286 270.133 273.785 270.301 271.368Z" fill="black"/>
<path d="M68.4353 212.548H63.6203C59.6293 212.548 56.3633 215.814 56.3633 219.805V227.79C56.3633 231.781 59.6293 235.047 63.6203 235.047H68.4353C72.4263 235.047 75.6923 231.781 75.6923 227.79V219.805C75.6923 215.814 72.4263 212.548 68.4353 212.548Z" fill="black"/>
<path d="M95.6326 189.05H90.8176C86.8266 189.05 83.5605 192.316 83.5605 196.307V204.292C83.5605 208.283 86.8266 211.549 90.8176 211.549H95.6326C99.6236 211.549 102.89 208.283 102.89 204.292V196.307C102.89 192.315 99.6236 189.05 95.6326 189.05Z" fill="black"/>
<path d="M122.799 172.829H117.984C113.993 172.829 110.727 176.095 110.727 180.086V188.071C110.727 192.062 113.993 195.328 117.984 195.328H122.799C126.79 195.328 130.056 192.062 130.056 188.071V180.086C130.056 176.095 126.79 172.829 122.799 172.829Z" fill="black"/>
<path d="M149.801 189.579H144.986C140.995 189.579 137.729 192.845 137.729 196.836V204.821C137.729 208.812 140.995 212.078 144.986 212.078H149.801C153.792 212.078 157.058 208.812 157.058 204.821V196.836C157.058 192.845 153.792 189.579 149.801 189.579Z" fill="black"/>
<path d="M419.017 212.548H423.832C427.823 212.548 431.089 215.814 431.089 219.805V227.79C431.089 231.781 427.823 235.047 423.832 235.047H419.017C415.026 235.047 411.76 231.781 411.76 227.79V219.805C411.76 215.814 415.026 212.548 419.017 212.548Z" fill="black"/>
<path d="M391.82 189.05H396.635C400.626 189.05 403.892 192.316 403.892 196.307V204.292C403.892 208.283 400.626 211.549 396.635 211.549H391.82C387.829 211.549 384.562 208.283 384.562 204.292V196.307C384.562 192.315 387.829 189.05 391.82 189.05Z" fill="black"/>
<path d="M364.653 172.829H369.468C373.459 172.829 376.725 176.095 376.725 180.086V188.071C376.725 192.062 373.459 195.328 369.468 195.328H364.653C360.662 195.328 357.396 192.062 357.396 188.071V180.086C357.396 176.095 360.661 172.829 364.653 172.829Z" fill="black"/>
<path d="M337.652 189.579H342.467C346.458 189.579 349.724 192.845 349.724 196.836V204.821C349.724 208.812 346.458 212.078 342.467 212.078H337.652C333.661 212.078 330.395 208.812 330.395 204.821V196.836C330.395 192.845 333.661 189.579 337.652 189.579Z" fill="black"/>
</svg>
